<?xml version="1.0" encoding="UTF-8" standalone="no"?>
<svg
   xmlns="http://www.w3.org/2000/svg"
   height="512"
   viewBox="0 0 512 512"
>
  <path
     d="m 171.25161,407.96155 c 0,2.06452 -2.37419,3.71613 -5.36774,3.71613 -3.40645,0.30968 -5.78064,-1.34194 -5.78064,-3.71613 0,-2.06452 2.37419,-3.71613 5.36774,-3.71613 3.09677,-0.30968 5.78064,1.34194 5.78064,3.71613 z m -32.10322,-4.64516 c -0.72258,2.06453 1.34193,4.43871 4.43871,5.05806 2.68387,1.03226 5.78064,0 6.4,-2.06451 0.61935,-2.06452 -1.34194,-4.43871 -4.43871,-5.36773 -2.68387,-0.72261 -5.67742,0.30966 -6.4,2.37418 z m 45.6258,-1.75484 c -2.99354,0.72258 -5.05806,2.68387 -4.74838,5.05806 0.30967,2.06452 2.99354,3.40646 6.09032,2.68388 2.99355,-0.72258 5.05806,-2.68388 4.74839,-4.74839 -0.30968,-1.96129 -3.09678,-3.30323 -6.09033,-2.99355 z M 252.69677,6 C 109.52258,6 0,114.69684 0,257.87113 c 0,114.4775 72.051613,212.43886 174.96774,246.91629 13.21291,2.37419 17.85807,-5.78065 17.85807,-12.49033 0,-6.40001 -0.30968,-41.70325 -0.30968,-63.38069 0,0 -72.25807,15.48388 -87.43226,-30.76131 0,0 -11.767741,-30.03873 -28.696773,-37.78067 0,0 -23.63871,-16.20646 1.651613,-15.89677 0,0 25.70323,2.06451 39.84516,26.63227 22.60645,39.84518 60.49032,28.3871 75.25161,21.5742 2.3742,-16.51614 9.08387,-27.97421 16.51613,-34.78712 -57.70322,-6.40001 -115.922578,-14.7613 -115.922578,-114.06459 0,-28.38711 7.845158,-42.63228 24.361288,-60.80004 -2.68387,-6.70968 -11.45806,-34.37422 2.68387,-70.09036 C 142.34839,106.23232 192,140.81299 192,140.81299 c 20.64516,-5.78065 42.83871,-8.7742 64.82581,-8.7742 21.98709,0 44.18064,2.99355 64.82581,8.7742 0,0 49.65161,-34.6839 71.2258,-27.87098 14.14193,35.81937 5.36774,63.38068 2.68387,70.09036 16.51613,18.27099 26.63226,32.51616 26.63226,60.80004 0,99.61297 -60.8,107.56136 -118.50323,114.06459 9.49678,8.15484 17.54839,23.63872 17.54839,47.89681 0,34.78712 -0.30968,77.83232 -0.30968,86.29683 0,6.70968 4.74839,14.86452 17.85807,12.49033 C 442.0129,470.30999 512,372.34863 512,257.87113 512,114.69684 395.87097,6 252.69677,6 Z M 100.33548,362.02605 c -1.341927,1.03224 -1.032253,3.40644 0.72258,5.36773 1.65162,1.65161 4.02581,2.37419 5.36775,1.03226 1.34193,-1.03226 1.03225,-3.40646 -0.72258,-5.36775 -1.65162,-1.65161 -4.02581,-2.37419 -5.36775,-1.03224 z m -11.148383,-8.36131 c -0.722581,1.34194 0.309677,2.99355 2.374193,4.02581 1.651613,1.03226 3.716129,0.72258 4.43871,-0.72258 0.722581,-1.34193 -0.309677,-2.99356 -2.374194,-4.02581 -2.064516,-0.61936 -3.716129,-0.30968 -4.438709,0.72258 z m 33.445163,36.74841 c -1.65161,1.34194 -1.03226,4.43871 1.34193,6.4 2.3742,2.3742 5.36775,2.68387 6.70968,1.03226 1.34194,-1.34192 0.72258,-4.43871 -1.34193,-6.4 -2.27097,-2.37419 -5.36775,-2.68387 -6.70968,-1.03226 z m -11.76774,-15.1742 c -1.65162,1.03226 -1.65162,3.71613 0,6.09032 1.65161,2.3742 4.43871,3.40645 5.78064,2.3742 1.65161,-1.34194 1.65161,-4.02581 0,-6.4 -1.44516,-2.37419 -4.12903,-3.40646 -5.78064,-2.06452 z"
     id="path1"
     style="stroke-width:1.03226" />
</svg>
