<?xml version="1.0" encoding="UTF-8" standalone="no"?>
<svg
   xmlns="http://www.w3.org/2000/svg"
   height="512"
   viewBox="0 0 512 512"
>
  <path
     d="M 114.60571,512.0197 H 8.4571429 V 170.1761 H 114.60571 Z M 61.474286,123.54547 C 27.531429,123.54547 0,95.429953 0,61.485603 a 61.474286,61.476989 0 0 1 122.94857,0 c 0,33.94435 -27.542856,62.059867 -61.474284,62.059867 z M 511.88571,512.0197 h -105.92 V 345.61238 c 0,-39.65888 -0.8,-90.51826 -55.18857,-90.51826 -55.18857,0 -63.64571,43.08761 -63.64571,87.661 V 512.0197 H 181.09714 V 170.1761 h 101.80572 v 46.63062 h 1.48571 C 298.56,189.9484 333.17714,161.60429 384.82286,161.60429 492.25143,161.60429 512,232.35026 512,324.24002 V 512.0197 Z"
     id="path1"
     style="stroke-width:1.14288" />
</svg>
