<svg
   xmlns="http://www.w3.org/2000/svg"
   height="512"
   viewBox="0 0 512 512"
>
  <path
     d="M 164.89274,24.598916 C 157.19308,5.9997348 136.89397,-3.8998293 117.49483,1.3999374 L 29.498701,25.39888 C 12.099467,30.198669 0,45.997973 0,63.997181 0,311.38629 200.59117,511.97745 447.98027,511.97745 c 17.99921,0 33.79851,-12.09946 38.5983,-29.4987 l 23.99894,-87.99612 c 5.29977,-19.39915 -4.59979,-39.69826 -23.19897,-47.39792 l -95.99578,-39.99823 c -16.29928,-6.79971 -35.19845,-2.09991 -46.29796,11.59948 l -40.39822,49.29783 C 234.28968,334.68526 177.29219,277.68777 143.99366,207.29087 l 49.29783,-40.29823 c 13.69939,-11.1995 18.39919,-29.99867 11.59949,-46.29796 L 164.89274,24.698911 Z"
     id="path1"
     style="stroke-width:0.999956" />
</svg>
