<?xml version="1.0" encoding="UTF-8" standalone="no"?>
<svg
   xmlns="http://www.w3.org/2000/svg"
   height="512"
   viewBox="0 0 512 512"
>
  <path
     d="m 256,0 c -4.41818,0 -8.8106,0.11280207 -13.17383,0.33398438 -4.36322,0.2211823 -8.69709,0.55127885 -13,0.98828122 -4.30291,0.4370024 -8.57527,0.9794929 -12.8125,1.6269532 -4.23723,0.6474602 -8.43928,1.3993971 -12.60547,2.2519531 -4.16619,0.8525559 -8.29498,1.8070856 -12.38476,2.859375 -4.08979,1.0522894 -8.14042,2.2025581 -12.14844,3.4492191 -4.00802,1.24666 -7.97364,2.589721 -11.89453,4.02539 -3.9209,1.43567 -7.7966,2.964668 -11.625,4.583985 -3.82841,1.619316 -7.60929,3.327398 -11.33985,5.125 -3.73055,1.797601 -7.41172,3.683773 -11.03906,5.654296 -3.62734,1.970524 -7.20194,4.025979 -10.7207,6.164063 -3.51876,2.138084 -6.98189,4.357921 -10.38672,6.658203 -3.40483,2.300282 -6.75158,4.681554 -10.03711,7.138672 -3.285525,2.457118 -6.509057,4.991018 -9.669921,7.599609 -3.160863,2.608591 -6.258224,5.292173 -9.289062,8.046875 -3.030839,2.754703 -5.995173,5.581111 -8.890625,8.476563 -2.895452,2.895452 -5.72186,5.859786 -8.476563,8.890625 -2.754702,3.030838 -5.438284,6.128199 -8.046875,9.289062 -2.608591,3.160864 -5.142491,6.384396 -7.599609,9.669921 -2.457118,3.28553 -4.83839,6.63228 -7.138672,10.03711 -2.300282,3.40483 -4.520119,6.86796 -6.658203,10.38672 -2.138084,3.51876 -4.193539,7.09336 -6.164063,10.7207 -1.970523,3.62734 -3.856695,7.30851 -5.654296,11.03906 -1.797602,3.73056 -3.505684,7.51144 -5.125,11.33985 -1.619317,3.8284 -3.148315,7.7041 -4.583985,11.625 -1.435669,3.92089 -2.77873,7.88651 -4.02539,11.89453 -1.246661,4.00802 -2.3969297,8.05865 -3.4492191,12.14844 -1.0522894,4.08978 -2.0068191,8.21857 -2.859375,12.38476 -0.852556,4.16619 -1.6044929,8.36824 -2.2519531,12.60547 -0.6474603,4.23723 -1.1899508,8.50959 -1.6269532,12.8125 -0.43700237,4.30291 -0.76709892,8.63678 -0.98828122,13 C 0.11280207,247.1894 0,251.58182 0,256 c 0,4.41818 0.11280207,8.8106 0.33398438,13.17383 0.2211823,4.36322 0.55127885,8.69709 0.98828122,13 0.4370024,4.30291 0.9794929,8.57527 1.6269532,12.8125 0.6474602,4.23723 1.3993971,8.43928 2.2519531,12.60547 0.8525559,4.16619 1.8070856,8.29498 2.859375,12.38476 1.0522894,4.08979 2.2025581,8.14042 3.4492191,12.14844 1.24666,4.00802 2.589721,7.97364 4.02539,11.89453 1.43567,3.9209 2.964668,7.7966 4.583985,11.625 1.619316,3.82841 3.327398,7.60929 5.125,11.33984 1.797601,3.73056 3.683773,7.41173 5.654296,11.03907 1.970524,3.62734 4.025979,7.20194 6.164063,10.7207 2.138084,3.51876 4.357921,6.98189 6.658203,10.38672 2.300282,3.40483 4.681554,6.75158 7.138672,10.03711 2.457118,3.28552 4.991018,6.50906 7.599609,9.66992 2.608591,3.16086 5.292173,6.25822 8.046875,9.28906 2.754703,3.03084 5.581111,5.99518 8.476563,8.89063 2.895452,2.89545 5.859786,5.72186 8.890625,8.47656 3.030838,2.7547 6.128199,5.43828 9.289062,8.04688 3.160864,2.60859 6.384396,5.14249 9.669921,7.5996 3.28553,2.45712 6.63228,4.8384 10.03711,7.13868 3.40483,2.30028 6.86796,4.52012 10.38672,6.6582 3.51876,2.13808 7.09336,4.19354 10.7207,6.16406 3.62734,1.97053 7.30851,3.8567 11.03906,5.6543 3.73056,1.7976 7.51144,3.50568 11.33985,5.125 3.8284,1.61932 7.7041,3.14831 11.625,4.58398 3.92089,1.43567 7.88651,2.77873 11.89453,4.02539 4.00802,1.24667 8.05865,2.39693 12.14844,3.44922 4.08978,1.05229 8.21857,2.00682 12.38476,2.85938 4.16619,0.85255 8.36824,1.60449 12.60547,2.25195 4.23723,0.64746 8.50959,1.18995 12.8125,1.62695 4.30291,0.43701 8.63678,0.7671 13,0.98829 C 247.1894,511.8872 251.58182,512 256,512 c 4.41818,0 8.8106,-0.1128 13.17383,-0.33398 4.36322,-0.22119 8.69709,-0.55128 13,-0.98829 4.30291,-0.437 8.57527,-0.97949 12.8125,-1.62695 4.23723,-0.64746 8.43928,-1.3994 12.60547,-2.25195 4.16619,-0.85256 8.29498,-1.80709 12.38476,-2.85938 4.08979,-1.05229 8.14042,-2.20255 12.14844,-3.44922 4.00802,-1.24666 7.97364,-2.58972 11.89453,-4.02539 3.9209,-1.43567 7.7966,-2.96466 11.625,-4.58398 3.82841,-1.61932 7.60929,-3.3274 11.33984,-5.125 3.73056,-1.7976 7.41173,-3.68377 11.03907,-5.6543 3.62734,-1.97052 7.20194,-4.02598 10.7207,-6.16406 3.51876,-2.13808 6.98189,-4.35792 10.38672,-6.6582 3.40483,-2.30028 6.75158,-4.68156 10.03711,-7.13868 3.28552,-2.45711 6.50906,-4.99101 9.66992,-7.5996 3.16086,-2.6086 6.25822,-5.29218 9.28906,-8.04688 3.03084,-2.7547 5.99518,-5.58111 8.89063,-8.47656 2.89545,-2.89545 5.72186,-5.85979 8.47656,-8.89063 2.7547,-3.03084 5.43828,-6.1282 8.04688,-9.28906 2.60859,-3.16086 5.14249,-6.3844 7.5996,-9.66992 2.45712,-3.28553 4.8384,-6.63228 7.13868,-10.03711 2.30028,-3.40483 4.52012,-6.86796 6.6582,-10.38672 2.13808,-3.51876 4.19354,-7.09336 6.16406,-10.7207 1.97053,-3.62734 3.8567,-7.30851 5.6543,-11.03907 1.7976,-3.73055 3.50568,-7.51143 5.125,-11.33984 1.61932,-3.8284 3.14831,-7.7041 4.58398,-11.625 1.43567,-3.92089 2.77873,-7.88651 4.02539,-11.89453 1.24667,-4.00802 2.39693,-8.05865 3.44922,-12.14844 1.05229,-4.08978 2.00682,-8.21857 2.85938,-12.38476 0.85255,-4.16619 1.60449,-8.36824 2.25195,-12.60547 0.64746,-4.23723 1.18995,-8.50959 1.62695,-12.8125 0.43701,-4.30291 0.7671,-8.63678 0.98829,-13 C 511.8872,264.8106 512,260.41818 512,256 c 0,-4.41818 -0.1128,-8.8106 -0.33398,-13.17383 -0.22119,-4.36322 -0.55128,-8.69709 -0.98829,-13 -0.437,-4.30291 -0.97949,-8.57527 -1.62695,-12.8125 -0.64746,-4.23723 -1.3994,-8.43928 -2.25195,-12.60547 -0.85256,-4.16619 -1.80709,-8.29498 -2.85938,-12.38476 -1.05229,-4.08979 -2.20255,-8.14042 -3.44922,-12.14844 -1.24666,-4.00802 -2.58972,-7.97364 -4.02539,-11.89453 -1.43567,-3.9209 -2.96466,-7.7966 -4.58398,-11.625 -1.61932,-3.82841 -3.3274,-7.60929 -5.125,-11.33985 -1.7976,-3.73055 -3.68377,-7.41172 -5.6543,-11.03906 -1.97052,-3.62734 -4.02598,-7.20194 -6.16406,-10.7207 -2.13808,-3.51876 -4.35792,-6.98189 -6.6582,-10.38672 -2.30028,-3.40483 -4.68156,-6.75158 -7.13868,-10.03711 -2.45711,-3.285525 -4.99101,-6.509057 -7.5996,-9.669921 -2.6086,-3.160863 -5.29218,-6.258224 -8.04688,-9.289062 -2.7547,-3.030839 -5.58111,-5.995173 -8.47656,-8.890625 -2.89545,-2.895452 -5.85979,-5.72186 -8.89063,-8.476563 -3.03084,-2.754702 -6.1282,-5.438284 -9.28906,-8.046875 -3.16086,-2.608591 -6.3844,-5.142491 -9.66992,-7.599609 -3.28553,-2.457118 -6.63228,-4.83839 -10.03711,-7.138672 -3.40483,-2.300282 -6.86796,-4.520119 -10.38672,-6.658203 -3.51876,-2.138084 -7.09336,-4.193539 -10.7207,-6.164063 -3.62734,-1.970523 -7.30851,-3.856695 -11.03907,-5.654296 -3.73055,-1.797602 -7.51143,-3.505684 -11.33984,-5.125 -3.8284,-1.619317 -7.7041,-3.148315 -11.625,-4.583985 -3.92089,-1.435669 -7.88651,-2.77873 -11.89453,-4.02539 -4.00802,-1.246661 -8.05865,-2.3969297 -12.14844,-3.4492191 -4.08978,-1.0522894 -8.21857,-2.0068191 -12.38476,-2.859375 -4.16619,-0.852556 -8.36824,-1.6044929 -12.60547,-2.2519531 -4.23723,-0.6474603 -8.50959,-1.1899508 -12.8125,-1.6269532 -4.30291,-0.43700237 -8.63678,-0.76709892 -13,-0.98828122 C 264.8106,0.11280207 260.41818,0 256,0 Z m 102.13281,155.04883 c 1.06646,-0.01 2.09304,0.0407 3.07813,0.15429 0.98509,0.11364 1.92844,0.2918 2.82617,0.53711 0.89773,0.24532 1.75032,0.55791 2.55469,0.94336 0.66327,0.32 1.28653,0.68943 1.86718,1.10743 0.58066,0.418 1.11901,0.88548 1.61329,1.40039 0.49427,0.5149 0.94354,1.07677 1.34765,1.6875 0.40412,0.61072 0.76209,1.26915 1.07227,1.97461 0.31018,0.70545 0.57268,1.45872 0.78515,2.25781 0.21248,0.79909 0.37533,1.64352 0.48633,2.53515 0.222,1.78328 0.2378,3.75153 0.0312,5.89844 -0.33891,3.54763 -0.98126,8.90049 -1.85351,15.58203 -0.87225,6.68154 -1.97424,14.69102 -3.23633,23.54883 -2.52418,17.71562 -5.68566,38.82707 -8.90821,59.50195 -3.22254,20.67489 -6.50638,40.91365 -9.27929,56.88672 -1.38646,7.98654 -2.64433,14.90662 -3.70313,20.28125 -1.05879,5.37463 -1.91822,9.20468 -2.50586,11.00977 -1.00363,3.08363 -2.02242,6.06109 -3.11132,8.79297 -0.54446,1.36593 -1.10652,2.67079 -1.69336,3.89648 -0.58684,1.22569 -1.19853,2.37131 -1.8418,3.42188 -0.64327,1.05056 -1.3175,2.00513 -2.03125,2.8457 -0.71375,0.84057 -1.46735,1.56835 -2.26563,2.16406 -0.79827,0.59571 -1.64222,1.05903 -2.53906,1.375 -0.89684,0.31597 -1.84601,0.48302 -2.85547,0.48438 -2.0189,0 -4.08437,-0.17602 -6.18164,-0.53711 -2.09727,-0.36109 -4.22591,-0.90612 -6.375,-1.64649 -2.14909,-0.74036 -4.31782,-1.67468 -6.49219,-2.8125 -2.17436,-1.13781 -4.35425,-2.47975 -6.52734,-4.0332 -4.34618,-3.10691 -20.94899,-14.33484 -37.4668,-25.41992 -16.5178,-11.08508 -32.95026,-22.02769 -36.95898,-24.5586 -0.88,-0.55418 -1.76646,-1.21125 -2.62305,-1.95898 -0.85659,-0.74773 -1.68367,-1.58618 -2.44531,-2.5 -0.76164,-0.91382 -1.4576,-1.90262 -2.05273,-2.95508 -0.59514,-1.05245 -1.09018,-2.16839 -1.44727,-3.33203 -0.35709,-1.16363 -0.5775,-2.37568 -0.625,-3.62305 -0.0475,-1.24736 0.0785,-2.53035 0.41211,-3.83398 0.33364,-1.30363 0.87579,-2.62848 1.66211,-3.96094 0.78632,-1.33245 1.81641,-2.67204 3.12695,-4.00586 4.31709,-4.39854 22.83055,-22.47182 40.96289,-40.14453 18.13235,-17.67271 35.88306,-34.94556 38.67578,-37.73828 0.69818,-0.69963 1.22373,-1.42215 1.59571,-2.14258 0.37197,-0.72043 0.59028,-1.43768 0.67383,-2.12304 0.0835,-0.68537 0.0323,-1.33917 -0.13477,-1.9336 -0.16711,-0.59443 -0.45008,-1.13049 -0.83008,-1.57812 -0.38,-0.44764 -0.85699,-0.80776 -1.41211,-1.05274 -0.55511,-0.24497 -1.1884,-0.37487 -1.88086,-0.36133 -0.69245,0.0136 -1.44235,0.17207 -2.23437,0.5 -0.79202,0.32794 -1.6247,0.82526 -2.47852,1.52344 -1.70763,1.39927 -8.94648,6.4358 -18.97265,13.28125 -10.02618,6.84545 -22.84105,15.50113 -35.69922,24.14258 -25.71634,17.28289 -51.6093,34.50645 -55.73438,37.07227 -0.97454,0.60509 -2.04377,1.18188 -3.19336,1.71875 -1.14959,0.53686 -2.37946,1.03487 -3.67383,1.48632 -1.29436,0.45146 -2.65363,0.85622 -4.0625,1.20508 -1.40886,0.34887 -2.86823,0.642 -4.36132,0.8711 -1.49309,0.22909 -3.01937,0.39419 -4.56641,0.48632 -1.54704,0.0921 -3.11482,0.11083 -4.68555,0.0488 -1.57072,-0.062 -3.14485,-0.20613 -4.70898,-0.43945 -1.56414,-0.23332 -3.11726,-0.5567 -4.64453,-0.97852 -6.34763,-1.75127 -14.8893,-4.25168 -22.90821,-6.69531 -8.0189,-2.44363 -15.51453,-4.82911 -19.77343,-6.34766 -2.048,-0.73018 -3.77186,-1.45394 -5.20313,-2.20703 -1.43127,-0.75309 -2.57071,-1.53676 -3.45508,-2.38476 -0.44218,-0.424 -0.82012,-0.86299 -1.13867,-1.32422 -0.318543,-0.46123 -0.577611,-0.94372 -0.781248,-1.45117 -0.407272,-1.01491 -0.59375,-2.13096 -0.59375,-3.38477 0,-0.89164 0.157808,-1.74847 0.453125,-2.57422 0.295318,-0.82575 0.727615,-1.62167 1.281253,-2.38867 0.55363,-0.767 1.227,-1.50532 2.00195,-2.2207 0.77495,-0.71539 1.65206,-1.40722 2.61133,-2.07813 1.91854,-1.34181 4.16775,-2.60187 6.60156,-3.80859 2.43382,-1.20673 5.05199,-2.35956 7.70508,-3.48828 5.59709,-2.38546 56.84639,-24.14789 108.5918,-45.99805 25.8727,-10.92508 51.86954,-21.87224 72.3457,-30.42969 20.47616,-8.55744 35.43212,-14.72648 39.22266,-16.09375 2.76654,-0.99781 5.43723,-1.84095 7.98632,-2.49804 2.54909,-0.65709 4.97614,-1.12823 7.25977,-1.37696 1.14182,-0.12436 2.248,-0.19353 3.31445,-0.20312 z"
     style="stroke-width:11.6364"
     id="path2" />
</svg>
