<?xml version="1.0" encoding="UTF-8" standalone="no"?>
<svg
   xmlns="http://www.w3.org/2000/svg"
   height="512"
   viewBox="0 0 512 512"
>
  <path
     d="M 256,0 C 114.61333,0 0,114.61333 0,256 0,397.38667 114.61333,512 256,512 397.38667,512 512,397.38667 512,256 512,114.61333 397.38667,0 256,0 Z m 0,85.333333 c 94.26133,0 170.66667,76.405337 170.66667,170.666667 0,94.26133 -76.40534,170.66667 -170.66667,170.66667 C 161.73867,426.66667 85.333333,350.26133 85.333333,256 85.333333,161.73867 161.73867,85.333333 256,85.333333 Z m 86.74999,87.583337 c -4.87198,-0.56149 -10.99333,0.76512 -17.83332,3.22916 -12.50134,4.50134 -172.29417,72.3455 -181.52084,76.27083 -8.74667,3.72268 -17.02083,7.77867 -17.02083,13.66667 0,4.12801 2.45634,6.44351 9.20834,8.85417 7.02932,2.50667 24.73416,7.87 35.1875,10.75 10.06933,2.77333 21.51616,0.36437 27.93749,-3.625 6.80533,-4.23467 85.38883,-56.80867 91.02083,-61.41667 5.632,-4.608 10.12885,1.30867 5.52085,5.91667 -4.60802,4.608 -58.53117,56.955 -65.64584,64.20834 -8.64,8.8 -2.52117,17.90383 3.27083,21.56249 6.61333,4.17067 54.20701,36.08833 61.37501,41.20833 7.168,5.13067 14.41666,7.43751 21.08332,7.43751 6.66667,0 10.16184,-8.76151 13.47917,-18.93751 3.872,-11.904 22.0725,-130.608 24.3125,-154 0.672,-7.08266 -1.5535,-11.81532 -5.9375,-13.91666 -1.32533,-0.63733 -2.81351,-1.02112 -4.43751,-1.20833 z"
     id="path1"
     style="stroke-width:10.6667" />
</svg>
